<svg width="113" height="113" fill="none" xmlns="http://www.w3.org/2000/svg"><circle cx="56.5" cy="56.5" r="56.5" fill="#23C7EC"/><path d="M70.583 77H43.335v-4.648L56.834 57.63c1.948-2.171 3.33-3.98 4.147-5.427.835-1.466 1.252-2.932 1.252-4.398 0-1.93-.547-3.488-1.642-4.676-1.076-1.187-2.532-1.78-4.37-1.78-2.189 0-3.886.667-5.093 2.003-1.206 1.336-1.809 3.164-1.809 5.483h-6.763c0-2.468.557-4.685 1.67-6.652 1.132-1.985 2.737-3.525 4.815-4.62 2.097-1.095 4.509-1.642 7.236-1.642 3.934 0 7.033.993 9.296 2.978 2.283 1.967 3.424 4.694 3.424 8.183 0 2.022-.576 4.146-1.726 6.373-1.132 2.208-2.997 4.722-5.594 7.543L51.769 71.6h18.814V77z" fill="#fff"/></svg>