<svg width="113" height="113" fill="none" xmlns="http://www.w3.org/2000/svg"><circle cx="56.5" cy="56.5" r="56.5" fill="#23C7EC"/><path d="M51.156 53.649h4.12c2.077-.019 3.72-.557 4.926-1.614 1.224-1.058 1.837-2.589 1.837-4.593 0-1.93-.51-3.423-1.531-4.48-1.002-1.077-2.542-1.615-4.62-1.615-1.819 0-3.312.529-4.481 1.587-1.17 1.039-1.754 2.402-1.754 4.09H42.89c0-2.077.547-3.97 1.642-5.677 1.114-1.707 2.654-3.034 4.62-3.98 1.986-.965 4.203-1.447 6.652-1.447 4.045 0 7.218 1.02 9.519 3.061 2.32 2.023 3.479 4.843 3.479 8.461 0 1.819-.585 3.535-1.754 5.15-1.15 1.595-2.644 2.801-4.48 3.617 2.226.761 3.914 1.958 5.065 3.59 1.169 1.634 1.753 3.582 1.753 5.845 0 3.637-1.252 6.532-3.757 8.684-2.486 2.153-5.761 3.229-9.825 3.229-3.896 0-7.088-1.04-9.574-3.118-2.486-2.078-3.73-4.842-3.73-8.293h6.764c0 1.78.593 3.228 1.78 4.341 1.207 1.114 2.821 1.67 4.844 1.67 2.096 0 3.748-.556 4.954-1.67 1.206-1.113 1.809-2.727 1.809-4.843 0-2.133-.631-3.775-1.893-4.926-1.261-1.15-3.135-1.725-5.622-1.725h-3.98v-5.344z" fill="#fff"/></svg>