<svg width="68" height="68" fill="none" xmlns="http://www.w3.org/2000/svg"><circle cx="34" cy="34" r="34" fill="#15A9CB"/><path d="M27.634 36.23c.218 0 .386.1.503.301.134.201.201.478.201.83 0 .655-.159 1.175-.478 1.56-.939 1.124-1.853 1.912-2.742 2.365-.872.453-1.929.68-3.17.68a8.497 8.497 0 0 1-2.416-.327c-.738-.219-1.635-.546-2.692-.982a24.639 24.639 0 0 0-2.767-1.031c-.856 1.56-2.139 2.34-3.85 2.34-.939 0-1.685-.21-2.239-.63-.57-.435-.855-.989-.855-1.66 0-.822.394-1.501 1.182-2.038.788-.553 1.837-.83 3.145-.83h.327l.453-7.322c.1-1.677.403-3.06.906-4.151a8.203 8.203 0 0 1 2.088-2.793 7.802 7.802 0 0 1 2.642-1.51 9.31 9.31 0 0 1 3.145-.528c1.811 0 3.204.47 4.177 1.41.972.938 1.459 2.163 1.459 3.672 0 1.024-.185 1.854-.554 2.491-.369.62-.88.931-1.535.931-.47 0-.838-.109-1.107-.327-.268-.235-.402-.562-.402-.981 0-.151.033-.428.1-.83.101-.47.151-.89.151-1.258 0-.705-.21-1.258-.629-1.66-.402-.42-1.023-.63-1.861-.63-1.476 0-2.617.486-3.422 1.46-.805.955-1.317 2.465-1.535 4.528l-.579 5.712a17.772 17.772 0 0 1-.327 2.088c1.074.184 2.416.478 4.026.88.94.235 1.66.403 2.164.504.503.1.947.15 1.333.15.973 0 1.803-.159 2.491-.477.705-.336 1.367-.864 1.988-1.586.201-.234.427-.352.679-.352zm13.51-2.114c.217 0 .385.109.502.327.118.218.176.495.176.83 0 .805-.243 1.283-.73 1.434-1.006.352-2.113.554-3.32.604-.319 1.409-.948 2.541-1.887 3.397-.94.838-2.005 1.258-3.196 1.258-1.006 0-1.87-.244-2.591-.73a4.667 4.667 0 0 1-1.61-1.937 6.204 6.204 0 0 1-.554-2.617c0-1.275.243-2.407.73-3.397.486-1.006 1.157-1.786 2.013-2.34a5.015 5.015 0 0 1 2.843-.855c1.274 0 2.298.445 3.07 1.334.787.872 1.249 1.954 1.383 3.245.788-.05 1.728-.218 2.818-.503a1.48 1.48 0 0 1 .352-.05zm-8.253 5.183c.536 0 .998-.218 1.384-.654.402-.437.67-1.066.805-1.888a3.57 3.57 0 0 1-1.208-1.383 4.202 4.202 0 0 1-.403-1.812c0-.268.026-.536.076-.805h-.126c-.67 0-1.233.327-1.686.981-.436.638-.654 1.544-.654 2.718 0 .922.176 1.627.529 2.113.369.486.796.73 1.283.73zm19.654-3.02c.218 0 .386.11.503.328.134.2.201.46.201.78 0 .385-.058.687-.176.905a1.646 1.646 0 0 1-.553.579 246.29 246.29 0 0 0-3.17 2.164l-1.61 1.082c-.638 3.472-1.477 6.197-2.517 8.177-1.023 1.996-2.331 2.994-3.925 2.994-.855 0-1.551-.269-2.088-.805-.537-.52-.805-1.208-.805-2.064 0-1.19.47-2.474 1.409-3.85.94-1.358 2.7-3.035 5.284-5.031l.15-.981a2.98 2.98 0 0 1-1.132 1.056 2.93 2.93 0 0 1-1.358.353c-1.04 0-1.87-.378-2.491-1.133-.62-.754-.931-1.744-.931-2.968 0-1.342.31-2.609.93-3.8.622-1.207 1.443-2.172 2.467-2.893 1.04-.738 2.138-1.107 3.296-1.107.368 0 .612.075.73.226.133.135.242.386.326.755a5.43 5.43 0 0 1 1.107-.1c.42 0 .713.067.88.2.185.118.278.361.278.73 0 .202-.009.361-.026.479-.067.52-.276 1.836-.628 3.95-.068.402-.143.847-.227 1.333-.067.47-.142.973-.226 1.51a52.774 52.774 0 0 1 3.723-2.667c.218-.134.411-.202.579-.202zm-8.882 3.145c.386 0 .755-.234 1.108-.704.352-.47.603-1.14.754-2.013l.805-4.302c-.687.017-1.325.285-1.912.805-.587.503-1.056 1.174-1.409 2.013a6.817 6.817 0 0 0-.528 2.667c0 .52.1.905.302 1.157.218.252.511.378.88.378zm-2.088 11.423c.42 0 .89-.503 1.41-1.51.536-1.006 1.047-2.608 1.534-4.805-1.292 1.107-2.223 2.105-2.793 2.994-.57.889-.855 1.669-.855 2.34 0 .285.05.52.15.704.118.185.303.277.554.277zm14.38-8.881c-.99 0-1.837-.244-2.542-.73a4.735 4.735 0 0 1-1.56-1.962 6.394 6.394 0 0 1-.528-2.592c0-1.275.235-2.407.705-3.397.486-1.006 1.14-1.786 1.962-2.34a4.742 4.742 0 0 1 2.768-.855c.99 0 1.836.252 2.54.755a4.492 4.492 0 0 1 1.586 1.937c.352.805.528 1.67.528 2.592 0 1.274-.243 2.415-.73 3.421-.486.99-1.148 1.77-1.987 2.34a4.802 4.802 0 0 1-2.742.83zm.276-2.718c.57 0 1.049-.31 1.434-.93.403-.621.604-1.527.604-2.718 0-.922-.167-1.619-.503-2.088-.335-.47-.738-.705-1.208-.705-.603 0-1.107.31-1.51.931-.385.604-.578 1.51-.578 2.718 0 .956.168 1.66.503 2.113.336.453.755.68 1.258.68z" fill="#fff"/></svg>