<svg width="121" height="18" fill="none" xmlns="http://www.w3.org/2000/svg"><path d="M17.622 4.492a2.263 2.263 0 1 0-3.913-2.275l-6.412 11.03a2.263 2.263 0 0 0 3.913 2.275l6.412-11.03z" fill="#1D8FA3"/><path d="M13.814 4.406a2.263 2.263 0 0 1 3.913-2.274l6.497 11.178a2.263 2.263 0 1 1-3.913 2.274L13.814 4.406z" fill="#1EA9C2"/><path d="M30.792 4.286a2.292 2.292 0 0 0-3.963-2.304l-6.571 11.305a2.292 2.292 0 0 0 3.963 2.303l6.571-11.304zM4.14 10.358a2.382 2.382 0 1 1 4.12-2.394l2.98 5.129a2.382 2.382 0 0 1-4.118 2.394L4.14 10.358zM2.578 5.634a2.388 2.388 0 1 0 0-4.776 2.388 2.388 0 0 0 0 4.776z" fill="#4ACCE3"/><path d="M48.642 10.893l1.34-7.082h2.043l-2.208 9.953h-2.064l-1.62-6.659-1.62 6.659h-2.065L40.24 3.81h2.044l1.347 7.068 1.64-7.068h1.737l1.633 7.082zM59.127 9.45H55.19v2.666h4.621v1.648H53.14V3.81h6.658v1.66H55.19v2.373h3.938V9.45zm1.887 4.314V3.81H64.5c1.208 0 2.124.232 2.748.697.624.46.937 1.137.937 2.03 0 .488-.126.918-.377 1.292-.25.37-.599.64-1.045.814.51.127.911.385 1.203.772.296.387.444.861.444 1.422 0 .957-.305 1.682-.916 2.174-.61.492-1.481.743-2.611.752h-3.87zm2.05-4.334v2.686h1.757c.483 0 .86-.114 1.128-.342.274-.232.41-.551.41-.957 0-.911-.471-1.374-1.415-1.387h-1.88zm0-1.45h1.518c1.034-.018 1.552-.43 1.552-1.237 0-.451-.133-.775-.397-.97-.26-.201-.672-.301-1.237-.301h-1.436V7.98zm12.052 3.172c0-.387-.137-.683-.41-.888-.273-.21-.766-.429-1.477-.657-.71-.232-1.273-.46-1.688-.683-1.13-.61-1.695-1.433-1.695-2.468a2.4 2.4 0 0 1 .45-1.436c.306-.423.741-.754 1.306-.99.57-.238 1.208-.356 1.915-.356.71 0 1.344.13 1.9.39.556.255.986.617 1.292 1.086.31.47.465 1.003.465 1.6h-2.051c0-.456-.144-.809-.43-1.06-.288-.255-.691-.382-1.21-.382-.502 0-.892.107-1.17.32a.994.994 0 0 0-.417.835c0 .323.162.595.486.813.328.22.809.424 1.442.616 1.167.35 2.017.786 2.55 1.305.533.52.8 1.167.8 1.942 0 .861-.326 1.538-.978 2.03-.651.488-1.529.731-2.632.731-.765 0-1.462-.139-2.091-.417-.63-.282-1.11-.667-1.443-1.155-.328-.487-.492-1.053-.492-1.695h2.058c0 1.098.656 1.647 1.968 1.647.488 0 .868-.098 1.142-.294.273-.2.41-.478.41-.834zm10.986-7.341v6.555c0 1.09-.342 1.95-1.026 2.584-.679.634-1.609.95-2.789.95-1.162 0-2.085-.307-2.769-.922-.683-.616-1.032-1.461-1.045-2.537v-6.63h2.05v6.569c0 .652.155 1.128.465 1.429.315.296.748.444 1.299.444 1.153 0 1.739-.606 1.757-1.818V3.81h2.058zm5.366 6.31h-1.634v3.643h-2.051V3.81h3.698c1.176 0 2.083.262 2.72.786.639.524.958 1.264.958 2.221 0 .68-.148 1.247-.444 1.702-.292.452-.736.812-1.333 1.08l2.153 4.068v.096h-2.201l-1.866-3.644zm-1.634-1.662h1.654c.515 0 .914-.13 1.197-.39.282-.264.423-.626.423-1.087 0-.469-.134-.838-.403-1.107-.264-.269-.672-.403-1.224-.403h-1.647v2.987zm12.879 1.237h-3.938v4.068h-2.05V3.81h6.48v1.66h-4.43v2.571h3.938v1.654zm7.67-.246h-3.938v2.666h4.621v1.648h-6.671V3.81h6.658v1.66h-4.608v2.373h3.938V9.45zm5.571.67h-1.634v3.644h-2.05V3.81h3.698c1.176 0 2.082.262 2.72.786.638.524.958 1.264.958 2.221 0 .68-.149 1.247-.445 1.702-.291.452-.736.812-1.333 1.08l2.153 4.068v.096h-2.201l-1.866-3.644zm-1.634-1.661h1.655c.515 0 .913-.13 1.196-.39.282-.264.424-.626.424-1.087 0-.469-.135-.838-.404-1.107-.264-.269-.672-.403-1.223-.403h-1.648v2.987z" fill="#fff"/></svg>