<svg width="24" height="24" fill="none" xmlns="http://www.w3.org/2000/svg"><circle cx="12" cy="12" r="12" fill="#555A7B"/><path d="M18.192 16.041a.936.936 0 0 0-.465-.693l-3.01-1.733a.944.944 0 0 0-1.137.15l-.592.593a.435.435 0 0 1-.58.033 17.14 17.14 0 0 1-1.368-1.23c-.44-.44-.855-.9-1.23-1.368a.434.434 0 0 1 .032-.58l.593-.593a.947.947 0 0 0 .15-1.138l-1.733-3.01a.936.936 0 0 0-.693-.464.936.936 0 0 0-.79.268l-.894.894c-.623.623-.633 1.764-.028 3.211.582 1.392 1.668 2.924 3.058 4.314 1.39 1.39 2.922 2.476 4.314 3.058.712.298 1.35.447 1.89.447.555 0 1.005-.158 1.321-.475l.894-.893a.936.936 0 0 0 .268-.79zm-3.672-2.084l3.01 1.733a.544.544 0 0 1 .167.8l-4-2.283.163-.162a.549.549 0 0 1 .66-.088zM8.107 6.4c.17.023.317.121.403.27l1.732 3.01a.549.549 0 0 1-.087.66l-.15.15L7.71 6.502a.541.541 0 0 1 .397-.103zm8.644 11.045c-.495.496-1.509.475-2.78-.056-1.345-.563-2.832-1.619-4.186-2.973-1.355-1.355-2.41-2.842-2.974-4.188-.531-1.27-.552-2.284-.057-2.779l.664-.663 2.298 3.993-.154.154a.83.83 0 0 0-.06 1.108c.384.478.808.949 1.258 1.399.45.45.921.874 1.4 1.259a.83.83 0 0 0 1.107-.061l.14-.141 4.006 2.286-.662.662z" fill="#fff"/></svg>